<svg xmlns="http://www.w3.org/2000/svg" viewBox="0 0 25.8 10.82"><defs><style>.cls-1{fill:none;stroke:#195072;stroke-linecap:round;stroke-miterlimit:10;stroke-width:0.25px;}.cls-2{fill:#195072;}</style></defs><g id="Layer_2" data-name="Layer 2"><g id="Layer_1-2" data-name="Layer 1"><g id="Layer_2-2" data-name="Layer 2"><g id="Layer_1-2-2" data-name="Layer 1-2"><path class="cls-1" d="M3,.13H15.38a.72.72,0,0,1,.6.28l1.56,2.13"/><path class="cls-1" d="M22.51,2.54H15.63a.73.73,0,0,1-.58-.27l-.64-.8a.71.71,0,0,0-.58-.28L4.69,1.14"/><path class="cls-1" d="M4.69,2.43h7.69a.78.78,0,0,1,.53.21l1.23.85a.73.73,0,0,0,.53.2H25.3"/><line class="cls-1" x1="7.36" y1="4.93" x2="23.5" y2="4.93"/><path class="cls-1" d="M5.74,7.55h6a.78.78,0,0,0,.53-.2l1.77-1.19A.7.7,0,0,1,14.59,6H25.67"/><path class="cls-1" d="M2,9.07l10.62.08a.78.78,0,0,0,.53-.21l1.93-1.8a.78.78,0,0,1,.53-.2h3"/><path class="cls-1" d="M.12,10.69h10.7L12.9,9.15h2.18a.78.78,0,0,0,.52-.21l1.14-1"/><line class="cls-1" x1="15.38" y1="9.15" x2="21.86" y2="9.15"/><ellipse class="cls-2" cx="22.26" cy="2.54" rx="0.57" ry="0.53"/><ellipse class="cls-2" cx="25.3" cy="3.69" rx="0.4" ry="0.37"/><ellipse class="cls-2" cx="4.46" cy="1.14" rx="0.46" ry="0.43"/><ellipse class="cls-2" cx="23.39" cy="4.93" rx="0.4" ry="0.37"/><ellipse class="cls-2" cx="1.84" cy="9.01" rx="0.55" ry="0.51"/><ellipse class="cls-2" cx="16.87" cy="7.74" rx="0.4" ry="0.37"/><ellipse class="cls-2" cx="7.36" cy="4.93" rx="0.4" ry="0.37"/></g></g></g></g></svg>