<svg xmlns="http://www.w3.org/2000/svg" viewBox="0 0 325.48 446.82"><defs><style>.cls-1,.cls-2,.cls-3,.cls-4,.cls-5,.cls-8{fill:none;}.cls-1,.cls-2,.cls-3,.cls-4,.cls-5,.cls-7{stroke:#2977b3;}.cls-1,.cls-2,.cls-3,.cls-4,.cls-5,.cls-7,.cls-8{stroke-linecap:round;stroke-linejoin:round;}.cls-1{stroke-width:3px;}.cls-2{stroke-width:2px;}.cls-4,.cls-8{stroke-width:0.75px;}.cls-5{stroke-width:0.5px;}.cls-6,.cls-7{fill:#2977b3;}.cls-8{stroke:#0eab91;opacity:0.81;}</style></defs><g id="Layer_2" data-name="Layer 2"><g id="Layer_1-2" data-name="Layer 1"><polyline class="cls-1" points="3.9 49.1 3.9 18.5 16.5 5.9 42.3 5.9"/><polyline class="cls-1" points="44.7 442.06 14.1 442.06 1.5 429.46 1.5 403.66"/><polyline class="cls-1" points="321.9 49.1 321.9 18.5 309.09 5.9 282.86 5.9"/><polyline class="cls-1" points="280.78 442.38 311.38 442.38 323.98 429.57 323.98 403.34"/><polyline class="cls-2" points="310.46 64.21 310.46 21.61 303.11 15.31 290.36 15.31"/><polyline class="cls-3" points="44.33 4.44 48.26 0.5 113.06 0.5 115.59 3.03 176.96 3.03"/><polyline class="cls-3" points="44.33 442.06 48.26 438.13 113.06 438.13 115.59 440.66 176.96 440.66"/><polyline class="cls-3" points="283.15 442.38 279.21 446.32 214.41 446.32 211.88 443.79 150.51 443.79"/><line class="cls-4" x1="284.34" y1="5.9" x2="268.72" y2="5.9"/><circle class="cls-5" cx="266.77" cy="5.9" r="1.95"/><circle class="cls-4" cx="321.9" cy="295.34" r="1.95"/><circle class="cls-6" cx="3.9" cy="65.45" r="1.7"/><circle class="cls-6" cx="321.9" cy="65.44" r="1.7"/><circle class="cls-6" cx="321.9" cy="73.32" r="1.7"/><circle class="cls-6" cx="3.9" cy="73.32" r="1.7"/><line class="cls-7" x1="3.9" y1="79.06" x2="3.9" y2="191.66"/><line class="cls-7" x1="321.9" y1="297.46" x2="321.9" y2="392.56"/><circle class="cls-5" cx="3.9" cy="273.98" r="1.95"/><line class="cls-7" x1="3.9" y1="275.93" x2="3.9" y2="371.03"/><polygon class="cls-8" points="308.22 432.4 317.76 422.86 317.76 20.62 306.9 9.76 18 9.76 7.88 20.45 7.88 422.86 17.54 432.52 308.22 432.4"/></g></g></svg>