<svg xmlns="http://www.w3.org/2000/svg" viewBox="0 0 399 79.23"><defs><style>.cls-1,.cls-2,.cls-3,.cls-4{fill:none;stroke-linecap:round;stroke-linejoin:round;}.cls-1,.cls-2,.cls-4{stroke:#5c9ea4;}.cls-1{stroke-width:0.25px;}.cls-2{stroke-width:0.5px;}.cls-3{stroke:#195072;}.cls-4{stroke-width:1.5px;}.cls-5{fill:#5c9ea4;}</style></defs><g id="Layer_2" data-name="Layer 2"><g id="Layer_1-2" data-name="Layer 1"><polygon class="cls-1" points="2.08 14.47 2.08 10.41 9.3 3.19 388.16 3.19 394.5 9.53 394.5 69.22 388.2 75.45 9.75 75.45 2.08 68.85 2.08 14.47"/><polyline class="cls-2" points="299.77 10.57 356.48 10.57 360.47 7.42"/><polyline class="cls-2" points="299.55 68.7 356.25 68.7 360.92 72.38"/><polyline class="cls-3" points="360.3 7.42 388.2 7.42 394.5 13.72 394.5 25.43"/><polyline class="cls-3" points="394.5 53.93 394.5 65.93 388.2 72.38 361.27 72.38"/><polyline class="cls-4" points="398.25 25.43 398.25 9.97 389.02 0.75 363.6 0.75"/><polyline class="cls-4" points="373.3 78.48 388.75 78.48 397.97 69.25 397.97 54.23"/><line class="cls-2" x1="356.7" y1="0.75" x2="308.32" y2="0.75"/><line class="cls-2" x1="356.7" y1="78.48" x2="308.32" y2="78.48"/><circle class="cls-5" cx="299.77" cy="10.57" r="0.9"/><circle class="cls-5" cx="299.77" cy="68.7" r="0.9"/><polyline class="cls-2" points="99.22 10.57 42.52 10.57 38.53 7.42"/><polyline class="cls-2" points="99.45 68.7 42.75 68.7 38.08 72.38"/><polyline class="cls-3" points="38.7 7.42 10.8 7.42 4.5 13.72 4.5 25.43"/><polyline class="cls-3" points="4.5 53.93 4.5 65.93 10.8 72.38 37.73 72.38"/><polyline class="cls-4" points="0.75 25.43 0.75 9.97 9.97 0.75 35.4 0.75"/><polyline class="cls-4" points="25.7 78.48 10.25 78.48 1.03 69.25 1.03 54.23"/><line class="cls-2" x1="42.3" y1="0.75" x2="90.67" y2="0.75"/><line class="cls-2" x1="42.3" y1="78.48" x2="90.67" y2="78.48"/><circle class="cls-5" cx="99.22" cy="10.57" r="0.9"/><circle class="cls-5" cx="99.22" cy="68.7" r="0.9"/></g></g></svg>