<svg xmlns="http://www.w3.org/2000/svg" viewBox="0 0 104.31 42.23"><defs><style>.cls-1,.cls-3{fill:none;stroke:var(--svg-color1, #195072);stroke-linecap:round;stroke-linejoin:round;}.cls-2{fill:#195072;}.cls-3{stroke-width:0.5px;}</style></defs><g id="Layer_2" data-name="Layer 2"><g id="Layer_1-2" data-name="Layer 1"><path class="cls-1" d="M13.21,4.72H6.8A3.26,3.26,0,0,0,3.54,8v5.29"/><path class="cls-1" d="M4.1,28.38v3.11a3.26,3.26,0,0,0,3.26,3.27h10.2"/><path class="cls-1" d="M100.51,16.76V10.34a3.26,3.26,0,0,0-3.26-3.26H92"/><path class="cls-1" d="M90.84,38.47h6.41a3.26,3.26,0,0,0,3.26-3.26V29.92"/><polyline class="cls-1" points="0.5 17.43 0.5 5.39 5.39 0.5 18.84 0.5"/><circle class="cls-2" cx="20.45" cy="0.5" r="0.43"/><circle class="cls-2" cx="21.72" cy="0.5" r="0.43"/><circle class="cls-2" cx="23" cy="0.5" r="0.43"/><circle class="cls-2" cx="24.27" cy="0.5" r="0.43"/><circle class="cls-2" cx="25.55" cy="0.5" r="0.43"/><polyline class="cls-1" points="103.81 24.8 103.81 36.83 98.92 41.73 85.47 41.73"/><circle class="cls-2" cx="82.95" cy="41.73" r="0.43"/><circle class="cls-2" cx="81.68" cy="41.73" r="0.43"/><circle class="cls-2" cx="80.4" cy="41.73" r="0.43"/><circle class="cls-2" cx="79.13" cy="41.73" r="0.43"/><circle class="cls-2" cx="77.85" cy="41.73" r="0.43"/><path class="cls-3" d="M86.41,38.47H4.17A3.68,3.68,0,0,1,.5,34.79V26"/><path class="cls-3" d="M17,4.72H99.22a3.67,3.67,0,0,1,3.68,3.67v8.82"/></g></g></svg>