<svg xmlns="http://www.w3.org/2000/svg" viewBox="0 0 363.34 212.19"><defs><style>.cls-1{fill:#195072;}.cls-2,.cls-3{fill:none;stroke-linecap:round;stroke-linejoin:round;stroke-width:1.5px;}.cls-2{stroke:#195072;}.cls-3{stroke:#0eab91;}.cls-4{fill:#0eab91;}</style></defs><g id="Layer_2" data-name="Layer 2"><g id="Layer_1-2" data-name="Layer 1"><circle class="cls-1" cx="75.24" cy="5.25" r="2.25"/><circle class="cls-1" cx="1.24" cy="39" r="1.24"/><circle class="cls-1" cx="1.24" cy="44.25" r="1.24"/><circle class="cls-1" cx="1.24" cy="49.5" r="1.24"/><circle class="cls-1" cx="1.24" cy="54.75" r="1.24"/><circle class="cls-1" cx="1.24" cy="60" r="1.24"/><circle class="cls-1" cx="1.24" cy="65.25" r="1.24"/><circle class="cls-1" cx="1.24" cy="148.11" r="1.24"/><circle class="cls-1" cx="1.24" cy="153.36" r="1.24"/><circle class="cls-1" cx="1.24" cy="158.61" r="1.24"/><circle class="cls-1" cx="1.24" cy="163.86" r="1.24"/><circle class="cls-1" cx="1.24" cy="169.11" r="1.24"/><circle class="cls-1" cx="1.24" cy="174.36" r="1.24"/><polyline class="cls-2" points="75.24 5.25 18.24 5.25 5.9 17.59 5.9 196.13 18.37 208.59 21.22 211.44 31.44 211.44"/><line class="cls-2" x1="56.52" y1="207.52" x2="17.36" y2="207.52"/><polyline class="cls-2" points="18.24 5.25 22.14 0.75 31.74 0.75"/><line class="cls-2" x1="1.24" y1="20.33" x2="1.24" y2="35.33"/><line class="cls-2" x1="1.24" y1="177.53" x2="1.24" y2="192.53"/><circle class="cls-3" cx="288.1" cy="5.25" r="2.25"/><circle class="cls-4" cx="288.1" cy="5.25" r="2.25"/><circle class="cls-4" cx="362.1" cy="39" r="1.24"/><circle class="cls-4" cx="362.1" cy="44.25" r="1.24"/><circle class="cls-4" cx="362.1" cy="49.5" r="1.24"/><circle class="cls-4" cx="362.1" cy="54.75" r="1.24"/><circle class="cls-4" cx="362.1" cy="60" r="1.24"/><circle class="cls-4" cx="362.1" cy="65.25" r="1.24"/><circle class="cls-4" cx="362.1" cy="148.89" r="1.24"/><circle class="cls-4" cx="362.1" cy="154.14" r="1.24"/><circle class="cls-4" cx="362.1" cy="159.39" r="1.24"/><circle class="cls-4" cx="362.1" cy="164.64" r="1.24"/><circle class="cls-4" cx="362.1" cy="169.89" r="1.24"/><circle class="cls-4" cx="362.1" cy="175.14" r="1.24"/><polyline class="cls-3" points="288.1 5.25 345.1 5.25 357.44 17.59 357.44 196.13 344.97 208.59 342.12 211.44 331.9 211.44"/><line class="cls-3" x1="305.8" y1="207.53" x2="344.97" y2="207.53"/><polyline class="cls-3" points="345.1 5.25 341.2 0.75 331.6 0.75"/><line class="cls-3" x1="362.1" y1="20.33" x2="362.1" y2="35.33"/><line class="cls-3" x1="362.1" y1="177.53" x2="362.1" y2="192.53"/></g></g></svg>